<svg height="512" viewBox="0 0 61 60" width="512" xmlns="http://www.w3.org/2000/svg"><g id="006---Cutlery" fill="none"><g id="Icons" transform="translate(0 1)"><path id="Shape" d="m50.67 40.73c-.06.33-.13.66-.2 1-.469891 2.0303755-1.2418204 3.9787388-2.29 5.78-.17.29-.34.57-.52.85s-.37.56-.57.83c-1.1958941 1.7076044-2.6499128 3.2189742-4.31 4.48-.26.2-.53.4-.81.59s-.55.38-.84.55c-1.7631109 1.1111863-3.6851375 1.9474365-5.7 2.48-.32.09-.64.17-1 .24l-1 .18c-1.6804397.2881094-3.3899066.3687129-5.09.24-.38 0-.75-.07-1.13-.12l-1-.16-1-.2c-2.0299097-.4664653-3.9782893-1.2350302-5.78-2.28l-.85-.52-.83-.56c-1.7002411-1.2052419-3.207448-2.6618714-4.47-4.32-.2-.26-.4-.53-.59-.81s-.38-.55-.55-.84c-.7750775-1.2169452-1.4155092-2.514574-1.91-3.87l.27-2.27.17-1.85 1.33-14.15 8.44-7.7c1.316547-.6746002 2.7009654-1.2075845 4.13-1.59.32-.09.65-.17 1-.24s.66-.13 1-.18c.6666667-.1066667 1.3333333-.1866667 2-.24 1.4135913-.1104101 2.8349161-.070184 4.24.12l1 .16c.33.06.65.12 1 .2 2.0317458.4654889 3.9807553 1.2376743 5.78 2.29.27.15.52.31.78.47l.08.05.73.73 6.82 6.93.63 5.16.15 1.25.76 6.28z" fill="#cad9fc"/><g fill="#e8edfc"><path id="Shape" d="m47.67 40.73c-.06.33-.13.66-.2 1-.469891 2.0303755-1.2418204 3.9787388-2.29 5.78-.17.29-.34.57-.52.85s-.37.56-.57.83c-1.1958941 1.7076044-2.6499128 3.2189742-4.31 4.48-.26.2-.53.4-.81.59s-.55.38-.84.55c-1.7631109 1.1111863-3.6851375 1.9474365-5.7 2.48-.32.09-.64.17-1 .24l-1 .18c-.6915749.1194078-1.3893598.1995362-2.09.24-.38 0-.75-.07-1.13-.12l-1-.16-1-.2c-2.0299097-.4664653-3.9782893-1.2350302-5.78-2.28l-.85-.52-.83-.56c-1.7002411-1.2052419-3.207448-2.6618714-4.47-4.32-.2-.26-.4-.53-.59-.81s-.38-.55-.55-.84c-.7750775-1.2169452-1.4155092-2.514574-1.91-3.87l.27-2.27.17-1.85 1.33-14.15 8.44-7.7c1.316547-.6746002 2.7009654-1.2075845 4.13-1.59.32-.09.65-.17 1-.24s.66-.13 1-.18c.6666667-.1066667 1.3333333-.1866667 2-.24.41 0 .83.06 1.24.12l1 .16c.33.06.65.12 1 .2 2.0317458.4654889 3.9807553 1.2376743 5.78 2.29.27.15.52.31.78.47l.08.05.73.73 6.82 6.93.63 5.16.15 1.25.76 6.28z"/><circle id="Oval" cx="30" cy="37" r="14"/><path id="Shape" d="m6.41 51c-.59996724-.0037439-1.19620308-.0946951-1.77-.27-1.4160845-.3556583-2.62375841-1.2776847-3.34-2.55-.30959018-.5909215-.38115659-1.2779591-.2-1.92 2-6.72 4.9-14 6.89-20.76 0 0-.56-.71-.7-.79-1.71-1.07-3-1.81-2.57-3.65l1.56-6.41c.05855575-.2354572.20071941-.4415945.4-.58.19639491-.1160948.43338994-.1416173.65-.07l11.67 3.42c.4636934.1809639.7237018.6754059.61 1.16l-1.61 6.42c-.4670642 1.8127998-2.1289342 3.0592023-4 3-.0922286-.0082729-.1843917.0165403-.26.07-1.3 6.88-2.64 13.8-4 20.72-.11249063.6296653-.47268355 1.1879643-1 1.55-.68981378.4554669-1.50379466.6860366-2.33.66z"/></g><path id="Shape" d="m59.17 46.94-.17-.61c-1.58-6.9-6.48-15.23-8-22.33l-2.28 2.2.28 2.55c.1210815.3412667.1918237.6983464.21 1.06 0 .2 0 .41.07.61l2.9 18.34c.0816334.6397332.3903859 1.2288471.87 1.66.0826322.0732049.1731955.1369347.27.19.3881221.257476.8442512.3932702 1.31.39.3416032-.0070597.679612-.0712814 1-.19.93-.35 3-.82 3.35-1.81.2652606-.6528644.3313701-1.3696309.19-2.06z" fill="#cad9fc"/><path id="Shape" d="m55.92 46.94-.15-.61c-1.44-6.19-5.42-17.95-6.77-24.33l-2 5.89c.12.24 2.16 1.5 2.21 1.92 0 .2 0 .41.07.61l2.9 18.34c.0816334.6397332.3903859 1.2288471.87 1.66.0826322.0732049.1731955.1369347.27.19.74-.4 2.1-.77 2.43-1.61.2585635-.6548795.3177097-1.3715931.17-2.06z" fill="#e8edfc"/><path id="Shape" d="m52.33 24c-.3 1.27-1.39 3.65-5.41 3.71-.1228487-.0393333-.2510088-.0595691-.38-.06h-.2c-.5401143-.0749119-1.072303-.1987545-1.59-.37-1.2006-.2632764-2.1821964-1.124061-2.6-2.28-3.15-11.89-3.42-20.56-.69-23.52.1340775-.14958219.2813375-.28680168.44-.41.7643522-.60066475 1.782154-.77029839 2.7-.45.9478014.31747234 1.6752299 1.08614684 1.94 2.05l4 15.08c.41 1.55.84 3.08 1.28 4.62.1.35.2.71.31 1.05s.14.38.2.58z" fill="#cad9fc"/><path id="Shape" d="m48.76 24.67c-.2837418 1.279912-1.1080556 2.374134-2.26 3h-.2c-.5401143-.0749119-1.072303-.1987545-1.59-.37-1.1900362-.2793365-2.1552923-1.1465587-2.56-2.3-3.15-11.89-3.42-20.56-.69-23.52.7512147.37690804 1.3098743 1.05165273 1.54 1.86l4 15.08c.41 1.55.85 3.08 1.28 4.62.1.35.2.71.31 1.06.05.19.1.37.17.57z" fill="#e8edfc"/><path id="Shape" d="m6.78 50.88c-1.8-.48-2-.77-2.66-2-.34667353-.6075841-.42631389-1.3315873-.22-2 2.3-7.08 4.60666667-14.1666667 6.92-21.26 0 0-.07-.07-.24-.17-1.90827201-.9301252-2.92973762-3.0474952-2.47-5.12l1.57-5.45c.02305706-.0744463.05673755-.1451753.1-.21l-1.88-.5c-.25655935-.068941-.53000671-.0329611-.76.1-.22802491.1344371-.39344509.3537986-.46.61l-1.57 5.45c-.45973762 2.0725048.56172799 4.1898748 2.47 5.12.17.1.23.2.24.17-2.32 7.0933333-4.62666667 14.18-6.92 21.26-.20631389.6684127-.12667353 1.3924159.22 2 .88218847 1.384623 2.27754733 2.3628127 3.88 2.72.7.19.92-.72 1.58-.72s-.75-.78-.3-.9c-.15.02.72.94.5.9z" fill="#fff"/></g><g id="Layer_2" transform="translate(-1 -1)"><path id="Rectangle-path" d="m3.753 30.864h8v2h-8z" fill="#fff" transform="matrix(.31 -.951 .951 .31 -24.945 29.362)"/><g fill="#428dff"><path id="Shape" d="m7.77 32.86c-.55228475 0-1-.4477153-1-1s.44771525-1 1-1 1 .4477153 1 1-.44771525 1-1 1z"/><path id="Shape" d="m45.66 35.81c-1.8914046-7.9475085-9.7949477-12.9199973-17.7780628-11.1850112s-13.1098358 9.5393678-11.5319372 17.5550112c1.4957565 6.8950885 7.5945401 11.8157453 14.65 11.82 1.0729815.0012314 2.1428114-.1161481 3.19-.35 8.0927476-1.7604466 13.2273263-9.7465742 11.47-17.84zm-11.9 15.89c-3.376669.7294274-6.904808.0848743-9.8054522-1.7913509-2.9006441-1.8762252-4.9352297-4.8298122-5.6545478-8.2086491-.7294274-3.376669-.0848743-6.904808 1.7913509-9.8054522 1.8762252-2.9006441 4.8298122-4.9352297 8.2086491-5.6545478 3.3480566-.7023684 6.8379926-.0439578 9.7 1.83 4.4168059 2.840987 6.6904735 8.0604104 5.7629749 13.2294652-.9274987 5.1690549-4.8739742 9.2723798-10.0029749 10.4005348z"/><path id="Shape" d="m47.59 3.67c-.2785462-1.02089944-1.0423498-1.83892684-2.0417786-2.18672806-.9994288-.34780123-2.1060622-.1806859-2.9582214.44672806-2.73 2.07-3.26 8.39-1.69 17.42-5.5743684-2.822398-12.090932-3.1209222-17.9-.82l3.48-12.64c.103974-.51308503-.2053723-1.01951975-.7093335-1.16125884-.5039611-.14173908-1.031943.12919712-1.2106665.62125884l-3.63 13-2.57-.69 3.64-12.98c.1334387-.35464611.0549677-.7542494-.2026753-1.03209795s-.6501966-.38620971-1.01389-.27987589-.6360462.40909512-.7034347.78197384l-3.62 13-2.58-.69 3.62-13c.0946754-.34476129-.0017689-.71384258-.2530033-.96821451-.2512343-.25437194-.6190902-.35538937-.965-.265-.3459097.09038936-.6173213.35845322-.7119967.70321451l-3.62 13-2.58-.69 3.63-12.97c.1491169-.55228475-.1777153-1.1208831-.73-1.26999999-.5522847-.14911688-1.1208831.17771525-1.27.72999999-4.77 17.27-3.19 11.47-5.67 20.73-.45591549 2.0720594.5644556 4.1871606 2.47 5.12.09492241.0421969.17503105.1118566.23.2-.14453766.5150645.14188601 1.0526597.65 1.22 1.44.47 2.08-2.06.1-3.18-1.08427214-.4900513-1.70672794-1.6448706-1.52-2.82l1.56-5.79 11.59 3.11-1.55 5.79c-.4089201 1.1400454-1.5459644 1.8512149-2.75 1.72-1.0482789-.0779069-2.0028657.6033401-2.27 1.62-1.86 8.83.85-4-4.64 21.88-.0543357.1466392-.16126751.2678286-.3.34-1.49.92-5 0-5.79-1.55-.10189385-.1415252-.14162322-.3185015-.11-.49l4.46-13.63c.12654607-.3436342.05514428-.7289538-.18612623-1.0044296-.2412705-.2754758-.61381666-.3970435-.97113271-.3168959s-.64224655.3491902-.74274106.7013255c-1.95 5.98 3.25-9.97-4.44 13.62-.84 2.53 2.75 5 6.17 5 1.67 0 3.54-.66 3.87-2.29l.48-2.27c8.92 16.53 33.21 15 39.92-2.62l1.07 4.85c.26 1.22 1.53 2.33 3.58 2.33 2.79 0 5.54-2.27 4.79-4.57-7.31-22.29-7.68-24.37-13.41-45.76zm-4.39 51.15-1.4-2c-.3259941-.4205337-.9242081-.5121453-1.3611129-.2084432-.4369048.3037022-.5594767.8963478-.2788871 1.3484432l1.39 2c-1.6553368 1.0334188-3.4549662 1.8152802-5.34 2.32l-.52-2.39c-.0520741-.3709999-.3071493-.6817738-.6608755-.8051855-.3537261-.1234117-.7467623-.0387578-1.0183193.2193303s-.3760785.6463136-.2708052 1.0058552l.52 2.4c-1.9246644.3178394-3.8855526.3515317-5.82.1l.43-2.42c.0966498-.5522847-.2727153-1.0783502-.825-1.175s-1.0783502.2727153-1.175.825l-.44 2.41c-1.9025637-.4364311-3.7293483-1.1543372-5.42-2.13l1.33-2.07c.2162134-.3001355.2490845-.6951106.0854584-1.0268576-.1636262-.331747-.4970193-.5460711-.8667566-.5572006-.3697374-.0111296-.715418.1827536-.8987018.5040582l-1.33 2.07c-1.5903858-1.134018-3.0026099-2.4990556-4.19-4.05l2-1.4c.4528735-.3175637.5625637-.9421265.245-1.395s-.9421265-.5625637-1.395-.245l-2 1.41c-.6680742-1.0711805-1.2339001-2.2028324-1.69-3.38.16-.74.32-1.47.47-2.21l1.31-.28c.5522847-.1159798.9059798-.6577153.79-1.21s-.6577153-.9059798-1.21-.79l-.43.1c.8533333-4 1.6933333-8 2.52-12 .08-.08.28-.07.38-.07 2.0929684.1156826 3.9984088-1.2012524 4.63-3.2l1.53-5.52c1.1213996-.5517691 2.293519-.9938256 3.5-1.32l.52 2.42c.0768121.3572656.3383883.6464139.6861955.7585255.3478071.1121115.729005.030154 1-.2150001.270995-.245154.3906166-.6162598.3138045-.9735254l-.52-2.4c1.9246644-.3178394 3.8855526-.3515317 5.82-.1l-.44 2.42c-.04653.2612525.0126875.5302868.1646117.7478573.1519243.2175706.3840963.3658348.6453883.4121427.5110481.0769754.9965614-.2481452 1.12-.75l.44-2.41c1.9145994.4186213 3.755239 1.1231885 5.46 2.09l-1.32 2.06c-.2634624.4618613-.1194165 1.0491348.3278566 1.3366675s1.041346.1747642 1.3521434-.2566675l.53-.83c.3 1.28.62 2.59 1 4 .74 2.74 5 2.85 5.18 3 .2250705.5520705.3633729 1.1356394.41 1.73l.33 1.49-.85.18c-.5522847.0579899-.9529898.5527153-.8949999 1.105s.5527152.9529899 1.1049999.895c.365841-.0356197.7274676-.105936 1.08-.21l1.19 5.41-2-.35c-.5407885-.0973173-1.0587916.2599262-1.16.8-.04653.2612525.0126875.5302868.1646117.7478573.1519243.2175706.3840963.3658348.6453883.4121427l2.41.44c-.4580424 1.8845001-1.1926803 3.6907657-2.18 5.36l-2.06-1.33c-.3001355-.2162134-.6951106-.2490845-1.0268576-.0854584-.331747.1636262-.5460711.4970193-.5572006.8667566-.0111296.3697374.1827536.715418.5040582.8987018l2.06 1.33c-1.1344935 1.5722197-2.4959842 2.9674107-4.04 4.14zm15.8-4.2c-.9241478 1.2402224-2.5772229 1.6865527-4 1.08-.1806083-.0945747-.3170101-.2561031-.38-.45-4.62-20.95-4.3-19.25-4.34-19.56-.54-3.46-2.12-2.51-4-3.17-.86-.3-1.39-.69-1.5-1.1-1-3.55-1.49-6.33-1.47-6.23-2.1-10.25-1.42-16.19.47-17.69.3270198-.22902815.7454092-.28355771 1.120207-.14599891.3747979.13755879.6585752.44979842.759793.83599891 5.92 22.09 6 23 13.23 45.23.23.71.32.79.11 1.2z"/><path id="Shape" d="m29 28c-4.8682388 1.1196292-8.4855674 5.2112298-9 10.18-.0772331.5467395.3032837 1.0526029.85 1.13h.15c.501932.0049401.9297504-.3629837 1-.86 1-7.3 7.08-8.44 7.34-8.48.5435969-.0917721.9103856-.6061708.82-1.15-.0439656-.2631284-.1912472-.4977814-.4090906-.6517742-.2178435-.1539928-.4881873-.2145578-.7509094-.1682258z"/></g></g></g></svg>