<svg height="464pt" viewBox="0 0 464 464" width="464pt" xmlns="http://www.w3.org/2000/svg"><path d="m464 232c0 128.128906-103.871094 232-232 232s-232-103.871094-232-232 103.871094-232 232-232 232 103.871094 232 232zm0 0" fill="#ebebeb"/><path d="m416 232c0 101.621094-82.378906 184-184 184s-184-82.378906-184-184 82.378906-184 184-184 184 82.378906 184 184zm0 0" fill="#fbb540"/><path d="m352 208c0 13.253906 10.746094 24 24 24h-40c-13.253906 0-24 10.746094-24 24s10.746094 24 24 24h-64c-13.253906 0-24 10.746094-24 24s10.746094 24 24 24h-64c-13.253906 0-24 10.746094-24 24s10.746094 24 24 24h14.230469c-6.191407 6.777344-7.9375 16.511719-4.484375 25.023438 3.453125 8.507812 11.488281 14.273437 20.652344 14.816406 56.101562-1.964844 108.234374-29.429688 141.578124-74.585938s44.253907-103.0625 29.625-157.253906h-33.601562c-13.253906 0-24 10.746094-24 24zm0 0" fill="#a45e14"/><path d="m48 192c.011719 3.578125.832031 7.105469 2.398438 10.320312 1.636718-10.058593 4.109374-19.957031 7.402343-29.601562-6.15625 4.496094-9.796875 11.660156-9.800781 19.28125zm0 0" fill="#e4e4e2"/><path d="m176 282.960938c-.625-26.722657-11.335938-49.535157-26.34375-60.304688-4.152344-25.058594-24.648438-44.1875-49.933594-46.597656-25.289062-2.410156-49.027344 12.5-57.839844 36.328125-8.808593 23.824219-.476562 50.59375 20.292969 65.214843-8.960937 11.0625-9.46875 26.738282-1.246093 38.359376 8.222656 11.625 23.175781 16.359374 36.589843 11.589843 8.550781 15.203125 21.304688 24.800781 35.351563 24.457031 24.730468-.601562 43.984375-31.503906 43.128906-69.046874zm0 0" fill="#aac16b"/><path d="m336 88c.054688-11.609375-8.21875-21.585938-19.636719-23.679688-11.417969-2.097656-22.695312 4.296876-26.761719 15.167969-36.15625-16.785156-79.152343-4.429687-100.878906 28.988281-21.730468 33.417969-15.578125 77.726563 14.433594 103.964844 30.011719 26.234375 74.746094 26.40625 104.960938.40625 30.214843-26 36.710937-70.261718 15.242187-103.847656 7.757813-4.140625 12.613281-12.207031 12.640625-21zm0 0" fill="#f9f9f9"/><path d="m296 152c0 22.089844-17.910156 40-40 40s-40-17.910156-40-40 17.910156-40 40-40 40 17.910156 40 40zm0 0" fill="#fd9226"/><path d="m50.398438 202.320312c1.636718-10.054687 4.109374-19.957031 7.394531-29.601562-3.285157 9.644531-5.757813 19.546875-7.394531 29.601562zm0 0" fill="#fbb540"/><path d="m140.902344 176.113281c0 13.253907-10.742188 24-24 24-13.253906 0-24-10.746093-24-24 0-13.257812 10.746094-24 24-24 13.257812 0 24 10.742188 24 24zm0 0" fill="#e4ac5a"/><path d="m116.902344 200.113281c6.566406-.003906 12.839844-2.707031 17.34375-7.480469-10.820313-11.117187-25.8125-17.179687-41.316406-16.710937v.191406c0 13.246094 10.730468 23.984375 23.972656 24zm0 0" fill="#9fb464"/><path d="m265.609375 412.792969 20.351563-35.351563-18.050782-15.824218-32.382812 24.808593zm0 0" fill="#fd9226"/><path d="m257.199219 369.824219c.964843 4.605469 3.382812 8.78125 6.898437 11.910156 4.5 3.878906 10.351563 5.820313 16.277344 5.402344l5.601562-9.695313-18.066406-15.839844zm0 0" fill="#ee8a24"/><path d="m408 250.367188-32.382812 24.808593-18.050782-15.824219 20.355469-35.351562zm0 0" fill="#fd9226"/><path d="m381.175781 248.175781c-3.90625-3.390625-8.867187-5.316406-14.039062-5.449219l-9.601563 16.625 18.082032 15.847657 13.0625-10.007813c.046874-6.484375-2.683594-12.679687-7.503907-17.015625zm0 0" fill="#ee8a24"/><path d="m216 370.238281-120-120 120-2zm0 0" fill="#e4ac5a"/><path d="m168.496094 322.734375c5.382812-12.546875 7.945312-26.125 7.503906-39.773437-.214844-11.640626-2.566406-23.144532-6.9375-33.9375l-73.0625 1.214843zm0 0" fill="#9fb464"/><path d="m208 376-120-120 120-2zm0 0" fill="#fbd699"/><path d="m193.496094 361.503906v-91l-89.503906 1.488282zm0 0" fill="#f0cd93"/><path d="m184 400-120-120 120-2zm0 0" fill="#fbd699"/><path d="m375.929688 254.167969c9.226562 8.085937 10.820312 21.851562 3.6875 31.832031-22.714844 31.828125-48.550782 61.304688-77.121094 88-8.957032 8.351562-22.785156 8.570312-32 .503906-5.074219-4.449218-8.027344-10.832031-8.136719-17.578125-.105469-6.746093 2.644531-13.222656 7.578125-17.828125l7.308594-6.832031c21.382812-19.972656 40.71875-42.03125 57.722656-65.839844l5.824219-8.152343c3.914062-5.484376 9.964843-9.054688 16.65625-9.835938 6.695312-.78125 13.402343 1.300781 18.480469 5.730469zm0 0" fill="#fd9226"/><path d="m71.894531 216c13.257813 0 24-10.746094 24-24s-10.742187-24-24-24c-5.066406.015625-9.996093 1.652344-14.0625 4.671875-3.304687 9.683594-5.789062 19.628906-7.433593 29.726563 3.945312 8.300781 12.308593 13.589843 21.496093 13.601562zm0 0" fill="#e4ac5a"/><path d="m49.160156 198.992188c2.820313 9.40625 11.101563 16.136718 20.886719 16.96875 9.785156.835937 19.085937-4.390626 23.457031-13.183594 4.375-8.792969 2.929688-19.367188-3.640625-26.664063-16.25 1.34375-31.109375 9.695313-40.703125 22.878907zm0 0" fill="#9fb464"/><path d="m104 200c0 13.253906-10.746094 24-24 24s-24-10.746094-24-24 10.746094-24 24-24 24 10.746094 24 24zm0 0" fill="#f55648"/><path d="m85.503906 120.695312c-9.292968 12.195313-17.027344 25.503907-23.015625 39.617188 6.988281 7.527344 17.996094 9.761719 27.367188 5.554688 9.371093-4.207032 15.015625-13.921876 14.027343-24.148438-.984374-10.222656-8.378906-18.679688-18.378906-21.023438zm0 0" fill="#e4ac5a"/><path d="m152 184c0 13.253906-10.746094 24-24 24s-24-10.746094-24-24 10.746094-24 24-24 24 10.746094 24 24zm0 0" fill="#fd7422"/><path d="m80 120c-9.554688-.027344-18.210938 5.628906-22.019531 14.394531-3.808594 8.765625-2.035157 18.953125 4.507812 25.917969 5.988281-14.113281 13.722657-27.421875 23.015625-39.617188-1.800781-.441406-3.648437-.675781-5.503906-.695312zm0 0" fill="#e4e4e2"/><path d="m112 152c0 13.253906-10.746094 24-24 24s-24-10.746094-24-24 10.746094-24 24-24 24 10.746094 24 24zm0 0" fill="#f55648"/></svg>