<svg height="464pt" viewBox="0 -16 464 464" width="464pt" xmlns="http://www.w3.org/2000/svg"><path d="m238.726562 67.128906-30.726562 36.871094-30.726562-36.871094c-5.992188-7.191406-9.273438-16.25-9.273438-25.609375v-1.519531c0-22.089844 17.910156-40 40-40s40 17.910156 40 40v1.519531c0 9.359375-3.28125 18.417969-9.273438 25.609375zm0 0" fill="#aae5c8"/><path d="m200 192h16v48h-16zm0 0" fill="#aae5c8"/><path d="m184 368c0 30.929688-25.070312 56-56 56s-56-25.070312-56-56 25.070312-56 56-56 56 25.070312 56 56zm0 0" fill="#f9f9f9"/><path d="m128 432c-35.347656 0-64-28.652344-64-64s28.652344-64 64-64 64 28.652344 64 64c-.039062 35.328125-28.671875 63.960938-64 64zm0-112c-26.507812 0-48 21.492188-48 48s21.492188 48 48 48 48-21.492188 48-48c-.027344-26.5-21.5-47.972656-48-48zm0 0" fill="#dbdbdb"/><path d="m344 216h-24c-1.816406 0-3.582031-.617188-5-1.753906l-37.808594-30.246094h-21.191406c-4.417969 0-8-3.582031-8-8s3.582031-8 8-8h24c1.816406 0 3.582031.617188 5 1.753906l37.808594 30.246094h21.191406c4.417969 0 8 3.582031 8 8s-3.582031 8-8 8zm0 0" fill="#ea9d2d"/><path d="m344 216h-24c-1.816406 0-3.582031-.617188-5-1.753906l-37.808594-30.246094h-21.191406c-4.417969 0-8-3.582031-8-8s3.582031-8 8-8h24c1.816406 0 3.582031.617188 5 1.753906l37.808594 30.246094h21.191406c4.417969 0 8 3.582031 8 8s-3.582031 8-8 8zm0 0" fill="#da922a"/><path d="m0 48 80-32v56zm0 0" fill="#f55648"/><path d="m56 64.800781 16 4.800781v-50.402343l-16 6.402343zm0 0" fill="#dc4d41"/><path d="m72 16h16v112h-16zm0 0" fill="#a88e74"/><path d="m29.136719 258.609375 13.738281-8.21875 34.394531 57.496094-13.738281 8.21875zm0 0" fill="#6f7478"/><path d="m208 304v-8c0-17.671875 14.328125-32 32-32v-32h-152l-40 136h352v-32h-160c-17.671875 0-32-14.328125-32-32zm0 0" fill="#ea9d2d"/><path d="m152 368c0 13.253906-10.746094 24-24 24s-24-10.746094-24-24 10.746094-24 24-24 24 10.746094 24 24zm0 0" fill="#dbdbdb"/><path d="m128 240h-96.335938l.335938-8h-32v-112h128zm0 0" fill="#ea9d2d"/><path d="m120 232h120c8.835938 0 16 7.164062 16 16s-7.164062 16-16 16h-120zm0 0" fill="#744630"/><path d="m208 368h-160c0-44.183594 35.816406-80 80-80h40c22.089844 0 40 17.910156 40 40zm0 0" fill="#fbb540"/><path d="m400 336h-48v-14.664062c0-27.476563-3.007812-54.867188-8.96875-81.6875l-7.03125-31.648438h24l20 56 20 16zm0 0" fill="#ea9d2d"/><path d="m336 160h40v48h-40c-13.253906 0-24-10.746094-24-24s10.746094-24 24-24zm0 0" fill="#fbb540"/><path d="m376 160h40l-16 24h-24zm0 0" fill="#ebebeb"/><path d="m0 120h128v56h-128zm0 0" fill="#f3af3e"/><path d="m48 152h32v48h-32zm0 0" fill="#dbdbdb"/><path d="m48 152h32v24h-32zm0 0" fill="#eaeae8"/><path d="m112 312h32v16h-32zm0 0" fill="#ea9d2d"/><path d="m208 64c-13.253906 0-24-10.746094-24-24s10.746094-24 24-24 24 10.746094 24 24h-16c0-4.417969-3.582031-8-8-8s-8 3.582031-8 8 3.582031 8 8 8zm0 0" fill="#8dc79d"/><path d="m200 128h16v16h-16zm0 0" fill="#aae5c8"/><path d="m200 160h16v16h-16zm0 0" fill="#aae5c8"/><path d="m120 232h16v32h-16zm0 0" fill="#5b3726"/><path d="m276 168h-20c-4.417969 0-8 3.582031-8 8s3.582031 8 8 8h20zm0 0" fill="#744630"/><path d="m365.710938 224-5.710938-16h-24l3.550781 16zm0 0" fill="#da922a"/><path d="m376 160h16v24h-16zm0 0" fill="#dbdbdb"/><path d="m446.121094 368c0 30.929688-25.074219 56-56 56-30.929688 0-56-25.070312-56-56s25.070312-56 56-56c30.925781 0 56 25.070312 56 56zm0 0" fill="#f9f9f9"/><path d="m390.121094 432c-35.347656 0-64-28.652344-64-64s28.652344-64 64-64c35.34375 0 64 28.652344 64 64-.039063 35.328125-28.671875 63.960938-64 64zm0-112c-26.511719 0-48 21.492188-48 48s21.488281 48 48 48c26.507812 0 48-21.492188 48-48-.027344-26.5-21.503906-47.972656-48-48zm0 0" fill="#dbdbdb"/><path d="m414.121094 368c0 13.253906-10.746094 24-24 24-13.257813 0-24-10.746094-24-24s10.742187-24 24-24c13.253906 0 24 10.746094 24 24zm0 0" fill="#dbdbdb"/><path d="m306.121094 384c-.015625-38.457031 26.089844-72.011719 63.367187-81.457031 37.28125-9.441407 76.210938 7.632812 94.511719 41.457031zm0 0" fill="#fbb540"/><path d="m32 232h88v32h-88c-8.835938 0-16-7.164062-16-16s7.164062-16 16-16zm0 0" fill="#a8a8a8"/></svg>