<svg height="464pt" viewBox="0 0 464 464" width="464pt" xmlns="http://www.w3.org/2000/svg"><path d="m464 232c0 128.128906-103.871094 232-232 232s-232-103.871094-232-232 103.871094-232 232-232 232 103.871094 232 232zm0 0" fill="#e4e4e2"/><path d="m384 232c0 83.949219-68.050781 152-152 152s-152-68.050781-152-152 68.050781-152 152-152 152 68.050781 152 152zm0 0" fill="#f7ba61"/><path d="m381.878906 360c-3.074218-.003906-5.871094-1.769531-7.199218-4.542969-1.328126-2.769531-.953126-6.058593.96875-8.457031 3.941406-4.921875 7.632812-10.039062 11.054687-15.335938 2.445313-3.585937 7.300781-4.570312 10.949219-2.214843 3.644531 2.351562 4.75 7.183593 2.492187 10.886719-3.714843 5.753906-7.71875 11.316406-12 16.664062-1.523437 1.902344-3.828125 3.003906-6.265625 3zm0 0" fill="#f5f5f5"/><path d="m410.039062 312c-2.65625-.003906-5.140624-1.324219-6.625-3.53125-1.488281-2.207031-1.777343-5.003906-.78125-7.46875 16.765626-41.652344 17.796876-87.980469 2.894532-130.335938-1.46875-4.167968.714844-8.738281 4.878906-10.207031 4.167969-1.472656 8.738281.710938 10.210938 4.878907 16.199218 46.035156 15.074218 96.394531-3.160157 141.664062-1.222656 3.023438-4.15625 5-7.417969 5zm0 0" fill="#f5f5f5"/><path d="m112 80c-22.089844 0-40 17.910156-40 40v32c.015625 15.890625 9.433594 30.265625 24 36.625v195.375c0 8.835938 7.164062 16 16 16s16-7.164062 16-16v-195.375c14.566406-6.359375 23.984375-20.734375 24-36.625v-32c0-22.089844-17.910156-40-40-40zm0 0" fill="#dbdbdb"/><path d="m120 80c-22.089844 0-40 17.910156-40 40v32c.015625 15.890625 9.433594 30.265625 24 36.625v195.375c0 8.835938 7.164062 16 16 16s16-7.164062 16-16v-195.375c14.566406-6.359375 23.984375-20.734375 24-36.625v-32c0-22.089844-17.910156-40-40-40zm0 0" fill="#f0f0f0"/><path d="m112 136h-16v-16c0-13.253906 10.746094-24 24-24v16c-4.417969 0-8 3.582031-8 8zm0 0" fill="#f9f9f9"/><path d="m328 168c-4.417969 0-8-3.582031-8-8v-80c0-4.417969 3.582031-8 8-8s8 3.582031 8 8v80c0 4.417969-3.582031 8-8 8zm0 0" fill="#dbdbdb"/><path d="m336 168c-4.417969 0-8-3.582031-8-8v-80c0-4.417969 3.582031-8 8-8s8 3.582031 8 8v80c0 4.417969-3.582031 8-8 8zm0 0" fill="#f9f9f9"/><path d="m96 152h16v16h-16zm0 0" fill="#f9f9f9"/><path d="m368 72c-4.417969 0-8 3.582031-8 8v72c0 17.671875-14.328125 32-32 32s-32-14.328125-32-32v-72c0-4.417969-3.582031-8-8-8s-8 3.582031-8 8v72c.023438 20.320312 12.839844 38.425781 32 45.199219v186.800781c0 8.835938 7.164062 16 16 16s16-7.164062 16-16v-186.800781c19.160156-6.773438 31.976562-24.878907 32-45.199219v-72c0-4.417969-3.582031-8-8-8zm0 0" fill="#dbdbdb"/><path d="m376 72c-4.417969 0-8 3.582031-8 8v72c0 17.671875-14.328125 32-32 32s-32-14.328125-32-32v-72c0-4.417969-3.582031-8-8-8s-8 3.582031-8 8v72c.023438 20.320312 12.839844 38.425781 32 45.199219v186.800781c0 8.835938 7.164062 16 16 16s16-7.164062 16-16v-186.800781c19.160156-6.773438 31.976562-24.878907 32-45.199219v-72c0-4.417969-3.582031-8-8-8zm0 0" fill="#f0f0f0"/></svg>