<svg height="471pt" viewBox="-31 0 471 471.352" width="471pt" xmlns="http://www.w3.org/2000/svg"><path d="m120.175781 143.351562-56 24 56 24zm0 0" fill="#fbb540"/><path d="m104.175781 150.207031v34.289063l16 6.855468v-48zm0 0" fill="#ea9d2d"/><path d="m112.175781 143.351562h16v88h-16zm0 0" fill="#a88e74"/><path d="m112.175781 143.351562h8v88h-8zm0 0" fill="#9a826a"/><path d="m336.175781 119.351562h-16v-88c0-3.199218 1.90625-6.089843 4.847657-7.351562l56-24 6.304687 14.703125-51.152344 21.921875zm0 0" fill="#985713"/><path d="m320.175781 96.015625h16v16h-16zm0 0" fill="#834b10"/><path d="m370.007812 471.351562h-176l-16-288h208zm0 0" fill="#4799cf"/><path d="m370.007812 471.351562h-176l-16-288h208zm0 0" fill="#4799cf"/><path d="m16.175781 384.855469h208v38.503906h-208zm0 0" fill="#f55648"/><path d="m16.175781 383.351562h208v20h-208zm0 0" fill="#dc4d41"/><path d="m16.175781 331.855469h208v20.503906h-208zm0 0" fill="#fbb540"/><path d="m256.175781 303.351562v-16c0-35.347656-28.652343-64-64-64h-11.953125l4.449219 80h39.503906v32h-184c-8.835937 0-16 7.164063-16 16v24c0 8.835938 7.164063 16 16 16h176.335938v32h-200.335938v8c0 22.09375 17.910157 40 40 40h160c22.089844 0 40-17.90625 40-40v-8h-16v-34.214843c4.933594-2.839844 7.984375-8.089844 8-13.785157v-24c-.015625-5.691406-3.066406-10.945312-8-13.785156v-34.214844zm0 0" fill="#428dc5"/><path d="m64.175781 223.351562h112c35.347657 0 64 28.652344 64 64v16h-240v-16c0-35.347656 28.652344-64 64-64zm0 0" fill="#a45e14"/><path d="m.175781 423.351562h240v8c0 22.09375-17.910156 40-40 40h-160c-22.089843 0-40-17.90625-40-40zm0 0" fill="#a45e14"/><path d="m160.175781 151.351562h240c4.417969 0 8 3.582032 8 8v16c0 4.417969-3.582031 8-8 8h-240c-4.417969 0-8-3.582031-8-8v-16c0-4.417968 3.582031-8 8-8zm0 0" fill="#e4e4e2"/><path d="m178.894531 199.351562h206.226563l.886718-16h-208zm0 0" fill="#428dc5"/><path d="m384.175781 151.351562h-208l6.710938-33.597656c.761719-3.730468 4.042969-6.40625 7.847656-6.402344h178.882813c3.804687-.003906 7.085937 2.671876 7.847656 6.402344zm0 0" fill="#ebebeb"/><path d="m386.007812 183.351562h-113.832031l107.839844 107.839844zm0 0" fill="#fbb540"/><path d="m385.121094 199.351562.886718-16h-113.832031l16 16zm0 0" fill="#ea9d2d"/><g fill="#834b10"><path d="m112.175781 263.351562h16v16h-16zm0 0"/><path d="m48.175781 263.351562h16v16h-16zm0 0"/><path d="m176.175781 263.351562h16v16h-16zm0 0"/><path d="m144.175781 247.351562h16v16h-16zm0 0"/><path d="m80.175781 247.351562h16v16h-16zm0 0"/></g><path d="m372.222656 431.351562h-76.046875v16h75.160157zm0 0" fill="#6cbae5"/><path d="m264.175781 431.351562h16v16h-16zm0 0" fill="#6cbae5"/><path d="m40.175781 391.351562 40 32 40-32zm0 0" fill="#ea9d2d"/><path d="m105.175781 403.351562 15-12h-80l15 12zm0 0" fill="#da922a"/><path d="m180.175781 131.351562-4 20h208l-4-20zm0 0" fill="#dbdbdb"/><path d="m24.175781 335.351562h192c8.835938 0 16 7.164063 16 16v24c0 8.835938-7.164062 16-16 16h-192c-8.835937 0-16-7.164062-16-16v-24c0-8.835937 7.164063-16 16-16zm0 0" fill="#70400e"/><path d="m16 389.039062c2.464844 1.5 5.292969 2.296876 8.175781 2.3125h9.832031l40-56h-19.664062zm0 0" fill="#62380c"/><path d="m62.34375 391.351562h19.664062l40-56h-19.664062zm0 0" fill="#62380c"/><path d="m118.34375 391.351562h19.664062l40-56h-19.664062zm0 0" fill="#62380c"/><path d="m166.34375 391.351562h19.664062l38.34375-53.6875c-2.464843-1.5-5.289062-2.296874-8.175781-2.3125h-9.832031zm0 0" fill="#62380c"/><path d="m16.175781 303.351562v32h120v8c0 8.835938 7.164063 16 16 16 8.835938 0 16-7.164062 16-16v8c0 8.835938 7.164063 16 16 16 8.835938 0 16-7.164062 16-16v-16h24v-32zm0 0" fill="#fbb540"/><path d="m16.175781 303.351562h208v16h-208zm0 0" fill="#f3af3e"/></svg>